<?xml version="1.0" standalone="no"?>
<!DOCTYPE svg PUBLIC "-//W3C//DTD SVG 20010904//EN"
 "http://www.w3.org/TR/2001/REC-SVG-20010904/DTD/svg10.dtd">
<svg version="1.0" xmlns="http://www.w3.org/2000/svg"
 width="1891.000000pt" height="1891.000000pt" viewBox="0 0 1891.000000 1891.000000"
 preserveAspectRatio="xMidYMid meet">
<metadata>
Created by potrace 1.16, written by Peter Selinger 2001-2019
</metadata>
<g transform="translate(0.000000,1891.000000) scale(0.100000,-0.100000)"
fill="#000000" stroke="none">
<path d="M7 18903 c-4 -3 -7 -4256 -7 -9450 l0 -9443 9450 0 9450 0 0 9450 0
9450 -9443 0 c-5194 0 -9447 -3 -9450 -7z m11025 -2661 c857 -361 1558 -659
1558 -662 0 -3 -277 -122 -616 -264 -338 -143 -616 -262 -618 -265 -2 -3 35
-222 80 -485 46 -264 82 -481 80 -483 -1 -2 -23 8 -47 21 -82 45 -303 135
-422 170 -212 64 -324 80 -562 81 -224 0 -283 -7 -472 -55 -137 -35 -289 -94
-427 -165 l-105 -54 -163 79 c-599 290 -1137 290 -1727 -1 -86 -42 -156 -76
-157 -75 -1 0 46 212 103 470 57 258 100 473 96 476 -5 4 -289 127 -633 274
-344 147 -628 270 -632 274 -4 4 348 160 783 346 434 186 791 337 793 335 2
-2 6 -128 10 -280 l6 -275 -25 -24 c-31 -29 -32 -68 -4 -104 l21 -26 -62 -303
c-34 -166 -64 -310 -66 -319 -5 -17 8 -18 171 -18 163 0 176 1 171 18 -3 9
-37 152 -76 316 l-70 300 24 25 c38 40 38 81 1 113 l-25 22 0 296 0 297 713
306 c391 168 719 304 727 301 8 -2 716 -300 1572 -662z m-7466 -1902 l-8 -160
1851 0 1851 0 0 -165 0 -165 2190 0 2190 0 0 160 0 160 1853 0 1854 0 6 98 c4
53 7 127 7 165 l0 67 690 0 c380 0 690 -3 689 -7 0 -5 -85 -77 -189 -161
l-189 -154 185 -161 184 -162 -409 -5 -410 -5 -95 -155 -94 -155 -1803 -5
-1803 -5 -95 -157 -96 -158 -2494 3 -2494 2 -89 158 -89 157 -1799 0 -1799 0
-93 165 -93 165 -408 0 -408 0 190 160 c105 89 191 163 191 164 0 2 -81 73
-180 157 -99 84 -180 154 -180 156 0 1 313 3 696 3 l697 0 -7 -160z m12101
-1327 c-2 -5 -63 -107 -134 -228 -71 -121 -135 -231 -143 -244 l-12 -24 146 5
c80 3 146 4 146 2 0 -3 -189 -324 -420 -715 -231 -390 -420 -714 -420 -718 0
-5 52 -74 116 -153 64 -78 119 -148 121 -155 3 -6 -377 -655 -844 -1442 l-848
-1431 -216 0 -215 0 -1719 -2908 c-945 -1599 -1731 -2926 -1745 -2950 l-27
-43 -1738 2950 -1738 2951 -216 2 -216 3 -852 1430 c-469 787 -852 1432 -853
1436 0 3 58 74 130 158 l130 152 -20 37 c-11 20 -199 341 -418 712 l-398 675
143 5 142 5 -140 238 c-77 130 -137 242 -134 247 7 12 12399 14 12392 3z"/>
<path d="M3940 14030 c0 -40 3 -48 15 -44 13 5 15 -13 15 -130 0 -114 -2 -136
-15 -136 -11 0 -15 -12 -15 -45 l0 -45 165 0 165 0 0 75 0 75 -55 0 c-54 0
-55 0 -55 -30 0 -28 -3 -30 -35 -30 l-35 0 0 50 0 50 50 0 50 0 0 40 0 40 -51
0 -50 0 3 43 c3 39 5 42 36 45 29 3 32 1 32 -22 0 -24 3 -26 50 -26 l50 0 0
70 0 70 -160 0 -160 0 0 -50z"/>
<path d="M4292 13998 l3 -83 40 0 c39 0 40 1 43 38 3 33 6 38 25 35 21 -3 22
-8 25 -131 2 -122 2 -129 -18 -134 -16 -4 -20 -14 -20 -49 l0 -44 95 0 95 0 0
45 c0 33 -4 45 -15 45 -13 0 -15 22 -15 135 0 127 1 135 19 135 16 0 20 -8 23
-37 3 -37 4 -38 46 -41 l42 -3 0 85 0 86 -195 0 -196 0 3 -82z"/>
<path d="M4870 14030 c0 -38 4 -50 15 -50 13 0 15 -21 15 -130 0 -109 -2 -130
-15 -130 -11 0 -15 -12 -15 -45 l0 -45 160 0 160 0 0 85 0 85 -60 0 -60 0 0
-40 c0 -36 -2 -40 -25 -40 l-25 0 0 135 c0 115 2 134 15 129 12 -5 15 4 15 45
l0 51 -90 0 -90 0 0 -50z"/>
<path d="M5210 14030 c0 -37 4 -50 14 -50 12 0 15 -29 18 -156 4 -197 1 -194
153 -194 88 0 106 3 129 21 l26 20 0 155 c0 130 2 154 15 154 11 0 15 12 15
50 l0 50 -75 0 -75 0 0 -180 0 -180 -35 0 -35 0 0 180 0 180 -75 0 -75 0 0
-50z"/>
<path d="M5610 14031 c0 -39 3 -49 14 -45 8 3 24 -12 41 -43 16 -26 34 -57 41
-68 12 -18 9 -29 -27 -88 -22 -37 -47 -67 -55 -67 -10 0 -14 -12 -14 -45 l0
-45 58 0 57 0 34 62 33 61 34 -54 c18 -30 34 -57 34 -61 0 -5 27 -8 60 -8 l60
0 0 45 c0 32 -4 45 -14 45 -12 0 -96 118 -96 134 0 3 18 34 41 70 27 43 45 63
55 59 11 -4 14 6 14 46 l0 51 -58 0 -57 0 -34 -61 c-18 -33 -36 -57 -40 -54
-3 3 -20 30 -37 58 l-30 52 -57 3 -57 3 0 -50z"/>
<path d="M13000 14030 c0 -38 4 -50 15 -50 13 0 15 -21 15 -130 0 -109 -2
-130 -15 -130 -11 0 -15 -12 -15 -45 l0 -45 160 0 160 0 0 85 0 85 -55 0 -55
0 0 -40 c0 -38 -2 -40 -30 -40 l-30 0 0 130 c0 109 2 130 15 130 11 0 15 12
15 50 l0 50 -90 0 -90 0 0 -50z"/>
<path d="M13340 14030 c0 -38 4 -50 15 -50 13 0 15 -22 15 -134 0 -139 10
-190 40 -206 10 -6 66 -10 123 -10 154 0 151 -3 155 194 3 126 7 156 18 156
10 0 14 14 14 50 l0 51 -77 -3 -78 -3 -3 -177 -2 -178 -30 0 -30 0 -2 178 -3
177 -77 3 -78 3 0 -51z"/>
<path d="M13803 14065 c-43 -18 -53 -59 -53 -215 0 -137 11 -194 40 -210 10
-5 75 -10 144 -10 l126 0 0 80 0 80 -55 0 -55 0 0 -35 c0 -33 -2 -35 -35 -35
l-35 0 0 130 0 130 35 0 c31 0 35 -3 35 -25 0 -23 3 -25 50 -25 l50 0 0 75 0
75 -107 0 c-69 -1 -119 -6 -140 -15z"/>
<path d="M14090 14030 c0 -38 4 -50 15 -50 13 0 15 -21 15 -130 0 -109 -2
-130 -15 -130 -11 0 -15 -12 -15 -45 l0 -45 165 0 165 0 0 75 0 75 -55 0 c-54
0 -55 0 -55 -30 0 -28 -3 -30 -36 -30 l-35 0 3 48 3 47 48 3 47 3 0 40 0 39
-50 0 -50 0 0 40 c0 39 1 40 34 40 28 0 35 -4 38 -22 3 -20 9 -23 53 -23 l50
0 0 70 0 70 -162 3 -163 2 0 -50z"/>
<path d="M14450 13995 l0 -85 40 0 c39 0 40 1 40 35 0 31 3 35 25 35 l25 0 0
-130 c0 -109 -2 -130 -15 -130 -11 0 -15 -12 -15 -45 l0 -45 90 0 90 0 0 45
c0 33 -4 45 -15 45 -13 0 -15 21 -15 130 l0 130 25 0 c22 0 25 -4 25 -35 0
-34 1 -35 40 -35 l40 0 0 85 0 85 -190 0 -190 0 0 -85z"/>
<path d="M7597 13743 c-4 -3 -7 -24 -7 -46 0 -30 4 -40 20 -44 19 -5 20 -14
20 -134 0 -122 -1 -129 -20 -129 -17 0 -20 -7 -20 -45 l0 -45 90 0 90 0 0 45
c0 25 -4 45 -10 45 -6 0 -10 50 -10 130 0 80 4 130 10 130 6 0 10 23 10 50 l0
50 -83 0 c-46 0 -87 -3 -90 -7z"/>
<path d="M7810 13700 c0 -38 4 -50 15 -50 13 0 15 -21 15 -130 0 -109 -2 -130
-15 -130 -11 0 -15 -12 -15 -45 l0 -45 75 0 75 0 1 103 0 102 52 -102 52 -103
72 0 73 0 0 45 c0 33 -4 45 -15 45 -13 0 -15 21 -15 130 0 109 2 130 15 130
11 0 15 12 15 50 l0 50 -70 0 -70 0 -1 -112 0 -113 -57 113 -57 112 -72 0 -73
0 0 -50z"/>
<path d="M8414 13737 c-3 -8 -4 -45 -2 -83 l3 -69 43 -3 42 -3 0 35 c0 32 3
36 25 36 l25 0 0 -130 c0 -109 -2 -130 -15 -130 -11 0 -15 -12 -15 -45 l0 -45
90 0 90 0 0 45 c0 33 -4 45 -15 45 -13 0 -15 21 -15 130 l0 130 25 0 c22 0 25
-4 25 -35 0 -34 1 -35 40 -35 l40 0 0 85 0 85 -190 0 c-151 0 -192 -3 -196
-13z"/>
<path d="M8837 13743 c-4 -3 -7 -24 -7 -46 0 -30 4 -40 20 -44 19 -5 20 -14
20 -134 0 -122 -1 -129 -20 -129 -17 0 -20 -7 -20 -45 l0 -45 165 0 165 0 0
75 0 75 -50 0 c-49 0 -50 -1 -50 -30 0 -28 -3 -30 -35 -30 l-35 0 0 50 0 50
45 0 45 0 0 40 0 40 -45 0 -45 0 0 40 c0 39 1 40 35 40 31 0 35 -3 35 -26 0
-24 2 -25 48 -22 l47 3 3 73 3 72 -159 0 c-87 0 -162 -3 -165 -7z"/>
<path d="M9200 13700 c0 -38 4 -50 15 -50 13 0 15 -21 15 -130 0 -109 -2 -130
-15 -130 -11 0 -15 -12 -15 -45 l0 -45 70 0 70 0 1 108 0 107 55 -107 54 -108
75 0 75 0 0 44 c0 35 -4 45 -20 49 -19 5 -20 14 -20 130 0 116 1 125 20 130
16 4 20 14 20 51 l0 46 -75 0 -75 0 -1 -107 0 -108 -55 108 -54 107 -70 0 -70
0 0 -50z"/>
<path d="M9630 13704 c0 -37 4 -47 20 -51 19 -5 20 -14 20 -130 0 -116 -1
-125 -20 -130 -16 -4 -20 -14 -20 -49 l0 -44 165 0 165 0 0 75 0 75 -50 0
c-49 0 -50 -1 -50 -30 0 -28 -3 -30 -35 -30 l-35 0 0 50 0 50 45 0 45 0 0 40
0 40 -45 0 -45 0 0 40 c0 39 1 40 35 40 31 0 35 -3 35 -26 0 -24 2 -25 48 -22
l47 3 3 73 3 72 -166 0 -165 0 0 -46z"/>
<path d="M10000 13701 c0 -39 4 -51 15 -51 13 0 15 -21 15 -130 0 -109 -2
-130 -15 -130 -11 0 -15 -12 -15 -45 l0 -45 145 0 c142 0 147 1 170 25 22 21
25 33 25 94 0 63 -2 71 -26 90 l-27 21 27 21 c23 18 26 27 26 84 0 47 -5 69
-19 86 -18 23 -25 24 -170 27 l-151 3 0 -50z"/>
<path d="M10380 13705 c0 -38 4 -48 20 -52 19 -5 20 -14 20 -130 0 -116 -1
-125 -20 -130 -16 -4 -20 -14 -20 -49 l0 -44 80 0 80 0 0 90 0 90 35 0 34 0 3
-87 3 -88 73 -3 72 -3 0 46 c0 33 -4 45 -15 45 -11 0 -15 12 -15 44 0 37 -5
48 -30 69 -28 24 -29 26 -9 32 45 15 55 135 15 182 l-24 28 -151 3 -151 3 0
-46z"/>
<path d="M10790 13700 c0 -38 4 -50 15 -50 13 0 15 -21 15 -130 0 -109 -2
-130 -15 -130 -11 0 -15 -12 -15 -45 l0 -45 90 0 90 0 0 45 c0 33 -4 45 -15
45 -13 0 -15 21 -15 130 0 109 2 130 15 130 11 0 15 12 15 50 l0 50 -90 0 -90
0 0 -50z"/>
<path d="M11043 13740 c-34 -14 -43 -42 -43 -128 0 -111 12 -125 114 -130 l76
-4 0 -44 c0 -44 0 -44 -35 -44 -28 0 -35 4 -35 20 0 18 -7 20 -60 20 l-60 0 0
-65 0 -65 129 0 c173 0 176 2 176 134 0 122 -6 129 -110 134 l-75 4 0 39 c0
38 1 39 35 39 24 0 35 -5 35 -15 0 -12 13 -15 55 -15 l56 0 -3 63 -3 62 -115
2 c-63 1 -125 -2 -137 -7z"/>
<path d="M3494 12863 c8 -16 287 -489 619 -1053 l605 -1025 4750 -3 4750 -2
583 982 c320 541 602 1016 626 1056 l43 72 -5995 0 -5996 0 15 -27z m3366
-250 c0 -68 -18 -800 -25 -1030 l-6 -193 120 0 119 0 6 83 c3 45 10 325 16
622 6 297 13 546 15 553 3 9 66 12 270 12 l265 0 -2 -172 -3 -173 -55 0 -55 0
-7 -320 c-13 -546 -23 -735 -42 -780 -23 -55 -79 -109 -140 -137 -50 -23 -57
-23 -391 -23 -325 0 -342 1 -386 21 -62 29 -115 86 -136 148 -21 61 -22 122
-9 693 l8 402 -57 -6 -58 -6 6 78 c4 43 7 122 7 177 l0 98 270 0 270 0 0 -47z
m2438 40 l382 -6 0 -142 c0 -78 -3 -210 -7 -294 l-6 -152 -151 3 -151 3 4 128
3 127 -80 0 -79 0 -7 -207 c-3 -115 -9 -324 -12 -465 l-7 -258 58 0 58 0 -6
-112 c-4 -62 -7 -139 -7 -170 l0 -58 -325 0 -325 0 0 58 c0 31 3 108 7 170 l6
112 52 0 52 0 7 213 c3 116 9 326 12 465 l7 252 -82 0 -81 0 0 -107 c0 -167
14 -153 -162 -153 l-151 0 8 293 c4 160 9 295 12 300 5 9 461 9 971 0z m1722
-173 l0 -170 -49 0 -48 0 -7 -172 c-3 -95 -9 -303 -12 -463 l-7 -290 48 0 47
0 -2 -164 c0 -90 -3 -168 -6 -173 -6 -10 -340 -11 -512 -1 l-122 6 0 86 c0 47
3 123 7 169 l6 82 52 0 52 0 7 248 c3 136 9 343 12 460 l7 212 -57 0 -56 0 0
103 c0 56 3 132 7 170 l6 67 313 0 314 0 0 -170z m1787 -12 c-4 -99 -7 -214
-7 -255 l0 -73 -185 0 -185 0 0 85 0 85 -124 0 -124 0 -8 -392 c-4 -216 -8
-424 -8 -463 l-1 -70 123 -3 122 -3 0 54 c0 30 3 88 6 130 l7 77 190 0 190 0
-8 -292 c-4 -161 -9 -296 -12 -300 -6 -12 -707 -9 -787 2 -152 22 -230 91
-255 227 -13 66 14 1094 30 1148 31 106 94 173 194 205 55 17 95 19 454 19
l394 1 -6 -182z"/>
<path d="M3480 12396 c0 -7 690 -1179 700 -1190 8 -8 63 46 83 80 5 9 -93 185
-294 526 -165 282 -312 530 -325 551 -24 37 -24 37 -94 37 -39 0 -70 -2 -70
-4z"/>
<path d="M14985 11859 c-176 -298 -321 -547 -323 -553 -3 -13 74 -116 87 -116
5 0 687 1141 718 1203 2 4 -33 7 -79 7 l-83 0 -320 -541z"/>
<path d="M7000 10425 c0 -47 3 -55 19 -55 18 0 19 -11 23 -188 3 -213 9 -233
75 -251 47 -13 184 -14 238 -1 72 16 75 27 75 242 0 181 1 190 20 195 17 5 20
14 20 59 l0 54 -95 0 -95 0 0 -221 0 -220 -42 3 -43 3 -3 218 -2 217 -95 0
-95 0 0 -55z"/>
<path d="M7510 10425 c0 -48 2 -55 20 -55 19 0 20 -7 20 -165 0 -158 -1 -165
-20 -165 -18 0 -20 -7 -20 -60 l0 -60 90 0 90 0 1 138 0 137 70 -137 69 -138
90 0 90 0 0 60 c0 53 -2 60 -20 60 -19 0 -20 7 -20 165 0 158 1 165 20 165 18
0 20 7 20 55 l0 55 -90 0 -89 0 -3 -132 -3 -133 -67 130 -66 130 -91 3 -91 3
0 -56z"/>
<path d="M8050 10425 c0 -48 2 -55 20 -55 19 0 20 -7 20 -165 0 -160 -1 -165
-20 -165 -19 0 -21 -5 -18 -57 l3 -58 113 -3 112 -3 0 60 c0 50 -3 59 -20 64
-19 5 -20 14 -20 162 0 148 1 157 20 162 17 5 20 14 20 59 l0 54 -115 0 -115
0 0 -55z"/>
<path d="M8310 10426 c0 -48 2 -55 22 -58 20 -3 25 -21 65 -213 24 -115 45
-216 48 -222 3 -9 34 -13 109 -13 l105 0 11 58 c7 31 29 131 49 222 33 150 39
165 59 168 20 3 22 9 22 58 l0 54 -110 0 -110 0 0 -51 c0 -31 5 -56 14 -63 11
-9 9 -34 -14 -146 l-26 -135 -12 65 c-35 195 -37 213 -24 218 7 2 12 24 12 58
l0 54 -110 0 -110 0 0 -54z"/>
<path d="M8830 10425 c0 -48 2 -55 20 -55 19 0 20 -7 20 -165 0 -158 -1 -165
-20 -165 -18 0 -20 -7 -20 -60 l0 -60 205 0 205 0 0 95 0 95 -65 0 -65 0 0
-35 c0 -35 0 -35 -45 -35 l-45 0 0 60 0 60 60 0 60 0 0 50 0 50 -60 0 -60 0 0
56 0 55 43 -3 c38 -3 42 -6 45 -30 3 -27 5 -28 63 -28 l59 0 0 85 0 85 -200 0
-200 0 0 -55z"/>
<path d="M9280 10425 c0 -48 2 -55 20 -55 19 0 20 -7 20 -165 0 -158 -1 -165
-20 -165 -18 0 -20 -7 -20 -60 l0 -60 95 0 95 0 0 115 0 115 45 0 45 0 0 -99
c0 -121 3 -125 112 -130 l78 -3 0 61 c0 54 -2 61 -20 61 -17 0 -20 7 -20 51 0
59 -11 84 -46 102 l-25 13 25 13 c36 20 49 60 44 142 -3 63 -7 74 -31 95 -27
23 -33 24 -213 24 l-184 0 0 -55z"/>
<path d="M9811 10463 c-26 -21 -41 -77 -40 -153 1 -123 39 -160 167 -160 l72
0 0 -55 0 -55 -45 0 c-43 0 -45 1 -45 30 l0 30 -70 0 -70 0 0 -90 0 -90 133 0
c145 0 194 9 223 41 16 18 19 37 19 135 0 150 -6 157 -138 164 l-92 5 -3 53
-3 52 45 0 c42 0 46 -2 46 -25 0 -24 2 -25 65 -25 l65 0 0 80 0 80 -154 0
c-132 0 -157 -3 -175 -17z"/>
<path d="M10200 10426 c0 -45 3 -54 20 -59 19 -5 20 -14 20 -162 0 -148 -1
-157 -20 -162 -17 -5 -20 -14 -20 -64 l0 -59 110 0 110 0 0 60 c0 47 -3 60
-15 60 -13 0 -15 25 -15 165 0 140 2 165 15 165 12 0 15 13 15 55 l0 55 -110
0 -110 0 0 -54z"/>
<path d="M10470 10426 c0 -45 3 -54 20 -59 19 -5 20 -14 20 -166 0 -154 -1
-161 -20 -161 -18 0 -20 -7 -20 -60 l0 -60 153 0 c170 0 217 9 247 47 19 24
20 39 20 240 l0 215 -29 29 -29 29 -181 0 -181 0 0 -54z m270 -221 l0 -165
-40 0 -40 0 0 165 0 165 40 0 40 0 0 -165z"/>
<path d="M11070 10477 c0 -2 -18 -100 -40 -217 -22 -117 -40 -214 -40 -216 0
-2 -9 -4 -20 -4 -18 0 -20 -7 -20 -60 l0 -60 90 0 89 0 6 35 c3 19 7 51 10 70
6 34 7 35 49 35 l44 0 8 -67 9 -68 90 0 90 0 3 57 c3 52 1 57 -20 60 -21 3
-25 16 -63 218 l-41 215 -122 3 c-67 1 -122 1 -122 -1z"/>
<path d="M11480 10425 c0 -42 3 -55 15 -55 13 0 15 -25 15 -165 0 -140 -2
-165 -15 -165 -12 0 -15 -13 -15 -60 l0 -60 153 0 c171 0 217 9 247 47 20 26
21 36 18 246 l-3 219 -28 24 c-27 23 -32 24 -208 24 l-179 0 0 -55z m270 -220
l0 -165 -40 0 -40 0 0 165 0 165 40 0 40 0 0 -165z"/>
<path d="M6990 9565 l0 -105 55 0 55 0 0 45 c0 43 1 45 30 45 l30 0 0 -166 c0
-161 -1 -166 -20 -161 -18 5 -20 0 -20 -54 l0 -59 115 0 115 0 0 59 c0 54 -2
59 -20 54 -19 -5 -20 0 -20 161 l0 166 30 0 c29 0 30 -2 30 -46 l0 -45 53 3
52 3 0 100 0 100 -242 3 -243 2 0 -105z"/>
<path d="M7520 9610 c0 -54 2 -60 20 -60 20 0 20 -5 18 -162 -3 -148 -5 -163
-20 -162 -15 2 -18 -7 -18 -57 l0 -59 205 0 206 0 -3 93 -3 92 -65 0 -65 0 -3
-37 c-3 -37 -4 -38 -43 -38 l-39 0 0 60 0 60 55 0 55 0 0 50 0 50 -55 0 -55 0
0 55 0 55 40 0 c38 0 40 -2 40 -30 l0 -30 65 0 65 0 0 90 0 90 -200 0 -200 0
0 -60z"/>
<path d="M8043 9659 c-61 -18 -68 -41 -71 -254 -6 -296 -7 -295 228 -295 l150
0 0 100 0 100 -70 0 -70 0 0 -46 0 -45 -42 3 -43 3 -3 163 -2 162 45 0 c43 0
45 -1 45 -30 l0 -30 65 0 65 0 0 90 0 90 -132 -1 c-73 0 -148 -5 -165 -10z"/>
<path d="M8390 9610 c0 -53 2 -60 20 -60 19 0 20 -7 20 -165 0 -158 -1 -165
-20 -165 -18 0 -20 -7 -20 -55 l0 -55 90 0 89 0 3 133 3 132 68 -132 67 -133
90 0 90 0 0 59 c0 54 -2 59 -20 54 -19 -5 -20 0 -20 161 0 159 1 166 20 166
18 0 20 7 20 60 l0 60 -90 0 -90 0 -1 -137 0 -138 -70 138 -69 137 -90 0 -90
0 0 -60z"/>
<path d="M9020 9657 c-61 -21 -70 -54 -70 -265 0 -276 7 -286 204 -280 122 3
126 4 153 31 l28 27 3 189 c5 292 -2 304 -177 308 -66 2 -119 -2 -141 -10z
m168 -269 l-3 -163 -40 0 -40 0 -3 163 -2 162 45 0 45 0 -2 -162z"/>
<path d="M9400 9610 c0 -54 2 -60 20 -60 20 0 20 -5 18 -162 -3 -148 -5 -163
-20 -162 -15 2 -18 -7 -18 -57 l0 -59 200 0 200 0 0 105 0 105 -69 0 -70 0 -3
-47 c-3 -46 -4 -48 -35 -51 l-33 -3 0 165 c0 161 1 166 20 166 19 0 21 5 18
58 l-3 57 -112 3 -113 3 0 -61z"/>
<path d="M9935 9663 c-38 -10 -65 -36 -75 -72 -5 -20 -10 -110 -10 -201 0
-269 8 -280 196 -280 122 0 124 0 156 29 l33 29 3 200 c4 231 -3 263 -62 287
-34 15 -194 19 -241 8z m155 -279 l0 -165 -42 3 -43 3 -3 163 -2 162 45 0 45
0 0 -166z"/>
<path d="M10370 9657 c-62 -21 -70 -53 -70 -270 0 -208 9 -249 55 -267 15 -6
96 -10 181 -10 l154 0 0 165 0 165 -95 0 -95 0 0 -55 c0 -48 2 -55 20 -55 18
0 20 -7 20 -56 l0 -55 -42 3 -43 3 -3 163 -2 162 45 0 c38 0 45 -3 45 -20 0
-18 7 -20 70 -20 l70 0 0 80 0 80 -137 -1 c-79 0 -153 -5 -173 -12z"/>
<path d="M10740 9610 c0 -54 2 -60 20 -60 20 0 20 -5 18 -162 -3 -148 -5 -163
-20 -162 -15 2 -18 -7 -18 -57 l0 -59 110 0 110 0 0 60 c0 49 -3 58 -15 54
-13 -5 -15 16 -15 160 0 141 2 166 15 166 12 0 15 13 15 60 l0 60 -110 0 -110
0 0 -60z"/>
<path d="M11093 9663 c-12 -2 -33 -16 -47 -30 l-26 -26 0 -219 0 -220 29 -29
29 -29 156 0 156 0 0 100 0 100 -64 0 -65 0 -3 -42 c-3 -43 -3 -43 -45 -46
l-43 -3 0 165 0 166 45 0 c43 0 45 -1 45 -30 l0 -30 65 0 66 0 -3 88 -3 87
-135 1 c-74 1 -145 0 -157 -3z"/>
<path d="M11565 9658 c-3 -7 -21 -98 -40 -203 -46 -250 -43 -236 -63 -233 -14
3 -17 -7 -20 -54 l-3 -58 96 0 95 0 0 28 c0 15 3 44 6 65 6 36 8 37 49 37 46
0 55 -12 55 -72 0 -55 5 -58 101 -58 l89 0 0 59 c0 53 -2 59 -19 54 -22 -5
-18 -20 -74 272 l-32 170 -118 3 c-88 2 -119 -1 -122 -10z"/>
<path d="M5730 8790 c0 -53 2 -60 20 -60 19 0 20 -7 20 -160 0 -153 -1 -160
-20 -160 -18 0 -20 -7 -20 -60 l0 -60 115 0 115 0 0 60 c0 53 -2 60 -20 60
-19 0 -20 7 -20 160 0 153 1 160 20 160 18 0 20 7 20 60 l0 60 -115 0 -115 0
0 -60z"/>
<path d="M6000 8790 c0 -53 2 -60 20 -60 19 0 20 -7 20 -160 0 -153 -1 -160
-20 -160 -18 0 -20 -7 -20 -60 l0 -60 90 0 89 0 3 133 3 132 68 -132 67 -133
90 0 90 0 0 60 c0 53 -2 60 -20 60 -19 0 -20 7 -20 160 0 153 1 160 20 160 18
0 20 7 20 60 l0 60 -90 0 -90 0 -1 -132 0 -133 -67 133 -67 132 -92 0 -93 0 0
-60z"/>
<path d="M6540 8750 l0 -100 55 0 55 0 0 40 c0 38 2 40 30 40 l30 0 0 -160 c0
-153 -1 -160 -20 -160 -18 0 -20 -7 -20 -60 l0 -60 115 0 115 0 0 60 c0 53 -2
60 -20 60 -19 0 -20 7 -20 160 l0 160 30 0 c28 0 30 -2 30 -40 l0 -40 50 0 50
0 0 100 0 100 -240 0 -240 0 0 -100z"/>
<path d="M7060 8794 c0 -47 3 -57 20 -61 19 -5 20 -14 20 -164 0 -152 -1 -159
-20 -159 -18 0 -20 -7 -20 -60 l0 -60 205 0 205 0 0 95 0 95 -65 0 -65 0 0
-35 c0 -35 0 -35 -45 -35 l-46 0 3 58 3 57 58 3 57 3 0 49 0 50 -60 0 -60 0 0
50 0 50 45 0 c43 0 45 -1 45 -30 l0 -30 65 0 65 0 0 90 0 90 -205 0 -205 0 0
-56z"/>
<path d="M7510 8795 c0 -48 3 -58 20 -62 19 -5 20 -14 20 -164 0 -152 -1 -159
-20 -159 -18 0 -20 -7 -20 -60 l0 -60 95 0 94 0 3 113 3 112 42 3 41 3 4 -99
c4 -128 7 -132 109 -132 l79 0 0 60 c0 53 -2 60 -20 60 -18 0 -20 7 -20 56 0
48 -4 60 -28 82 l-28 27 28 23 c27 22 28 28 28 107 0 74 -3 87 -24 112 l-24
28 -191 3 -191 3 0 -56z"/>
<path d="M8095 8836 c-17 -7 -36 -25 -43 -40 -15 -33 -17 -412 -2 -450 17 -46
55 -56 215 -56 l145 0 0 105 0 105 -65 0 -65 0 0 -45 0 -45 -45 0 -45 0 0 160
0 160 45 0 c43 0 45 -1 45 -30 l0 -30 65 0 65 0 0 90 0 90 -142 0 c-96 -1
-153 -5 -173 -14z"/>
<path d="M8523 8831 c-23 -14 -35 -32 -43 -63 -16 -59 -9 -395 8 -426 22 -38
71 -52 184 -52 115 0 160 17 179 67 6 17 9 107 7 230 l-3 203 -28 27 c-27 27
-31 28 -150 31 -108 2 -126 0 -154 -17z m187 -261 l0 -160 -45 0 -45 0 0 160
0 160 45 0 45 0 0 -160z"/>
<path d="M8920 8790 c0 -53 2 -60 20 -60 19 0 20 -7 20 -160 0 -153 -1 -160
-20 -160 -18 0 -20 -7 -20 -60 l0 -60 90 0 90 0 1 133 0 132 67 -132 67 -133
92 0 93 0 0 60 c0 53 -2 60 -20 60 -19 0 -20 7 -20 160 0 153 1 160 20 160 18
0 20 7 20 60 l0 60 -90 0 -90 0 -1 -137 0 -138 -70 138 -69 137 -90 0 -90 0 0
-60z"/>
<path d="M9460 8750 l0 -100 50 0 50 0 0 40 c0 38 2 40 30 40 l30 0 0 -160 c0
-153 -1 -160 -20 -160 -18 0 -20 -7 -20 -60 l0 -60 115 0 115 0 0 60 c0 53 -2
60 -20 60 -19 0 -20 7 -20 160 l0 160 30 0 c28 0 30 -2 30 -40 l0 -40 55 0 55
0 0 100 0 100 -240 0 -240 0 0 -100z"/>
<path d="M9980 8790 c0 -53 2 -60 20 -60 19 0 20 -7 20 -160 0 -153 -1 -160
-20 -160 -18 0 -20 -7 -20 -60 l0 -60 110 0 110 0 0 60 c0 47 -3 60 -15 60
-13 0 -15 24 -15 160 0 136 2 160 15 160 12 0 15 13 15 60 l0 60 -110 0 -110
0 0 -60z"/>
<path d="M10250 8790 c0 -53 2 -60 20 -60 19 0 20 -7 20 -160 0 -153 -1 -160
-20 -160 -18 0 -20 -7 -20 -60 l0 -60 90 0 90 0 1 138 0 137 70 -137 69 -138
90 0 90 0 0 60 c0 53 -2 60 -20 60 -19 0 -20 7 -20 160 0 153 1 160 20 160 18
0 20 7 20 60 l0 60 -90 0 -90 0 -1 -137 0 -138 -70 138 -69 137 -90 0 -90 0 0
-60z"/>
<path d="M10790 8794 c0 -47 3 -57 20 -61 19 -5 20 -14 20 -164 0 -152 -1
-159 -20 -159 -18 0 -20 -7 -20 -60 l0 -60 205 0 205 0 0 95 0 95 -65 0 -65 0
0 -35 c0 -35 0 -35 -45 -35 l-46 0 3 58 3 57 58 3 57 3 0 49 0 50 -60 0 -60 0
0 50 0 50 45 0 c43 0 45 -1 45 -30 l0 -30 65 0 65 0 0 90 0 90 -205 0 -205 0
0 -56z"/>
<path d="M11240 8794 c0 -47 3 -57 20 -61 19 -5 20 -14 20 -164 0 -152 -1
-159 -20 -159 -18 0 -20 -7 -20 -60 l0 -60 90 0 90 0 0 130 c0 72 4 130 8 130
4 0 37 -58 72 -130 l64 -130 88 0 88 0 0 60 c0 53 -2 60 -20 60 -19 0 -20 7
-20 160 0 153 1 160 20 160 18 0 20 7 20 60 l0 60 -90 0 -90 0 -1 -132 0 -133
-67 133 -67 132 -92 0 -93 0 0 -56z"/>
<path d="M11780 8750 l0 -100 55 0 55 0 0 40 c0 38 2 40 30 40 l30 0 0 -160
c0 -153 -1 -160 -20 -160 -18 0 -20 -7 -20 -60 l0 -60 115 0 115 0 0 60 c0 53
-2 60 -20 60 -19 0 -20 7 -20 160 l0 160 30 0 c28 0 30 -2 30 -40 l0 -40 50 0
50 0 0 100 0 100 -240 0 -240 0 0 -100z"/>
<path d="M12355 8632 c-37 -203 -41 -217 -62 -220 -21 -3 -23 -9 -23 -63 l0
-59 94 0 94 0 7 70 7 70 43 0 c48 0 45 4 60 -97 l7 -43 89 0 89 0 0 60 c0 52
-2 60 -19 60 -22 0 -21 -4 -72 268 l-33 172 -120 0 -121 0 -40 -218z"/>
<path d="M12800 8790 c0 -53 2 -60 20 -60 19 0 20 -7 20 -160 0 -153 -1 -160
-20 -160 -18 0 -20 -7 -20 -60 l0 -60 200 0 200 0 0 110 0 110 -70 0 -70 0 0
-50 0 -50 -35 0 -35 0 0 160 c0 153 1 160 20 160 18 0 20 7 20 60 l0 60 -115
0 -115 0 0 -60z"/>
<path d="M6134 7888 c8 -13 755 -1281 1661 -2818 906 -1537 1650 -2799 1654
-2803 6 -6 1161 1934 3318 5571 l43 73 -81 -3 -82 -3 -664 -1120 c-366 -616
-868 -1464 -1115 -1885 -980 -1665 -1412 -2390 -1420 -2382 -4 4 -721 1218
-1592 2697 l-1585 2690 -76 3 -76 3 15 -23z"/>
<path d="M6420 7903 c0 -8 1234 -2102 1237 -2099 2 1 -2 43 -8 92 -18 147 -6
445 25 590 31 149 83 298 147 429 l50 101 277 42 c152 24 307 46 345 49 64 6
67 5 67 -16 0 -16 -6 -21 -25 -21 -21 0 -25 -5 -25 -29 0 -23 5 -30 23 -33
l22 -3 -12 -155 c-8 -85 -29 -285 -48 -445 -18 -159 -39 -342 -45 -405 -5 -63
-13 -134 -16 -157 l-5 -43 -90 0 c-86 0 -89 -1 -89 -22 0 -20 -16 -28 -143
-72 -78 -26 -183 -64 -234 -83 -82 -31 -91 -37 -83 -54 10 -17 13 -17 78 8
230 87 488 171 498 160 3 -3 -2 -19 -10 -36 -19 -36 -21 -92 -4 -109 29 -29
142 -9 368 63 58 18 129 41 158 49 l54 16 -18 -28 c-38 -58 -46 -80 -34 -102
6 -11 20 -20 31 -20 11 0 112 36 225 80 112 44 211 80 219 80 12 0 10 -8 -10
-35 -15 -19 -25 -42 -23 -52 5 -26 49 -21 213 26 77 22 180 47 229 56 101 17
212 20 221 5 3 -5 -10 -24 -30 -42 -41 -35 -58 -69 -48 -94 9 -24 94 -13 233
30 278 87 351 108 356 104 2 -3 -3 -19 -13 -37 -16 -28 -17 -33 -3 -58 34 -62
106 -72 430 -61 220 8 239 11 240 42 0 4 -119 6 -267 2 -299 -7 -290 -11 -121
60 l88 36 20 67 c12 36 23 84 27 106 5 40 5 40 -43 63 -27 13 -85 48 -130 78
l-81 53 -51 -19 c-29 -11 -83 -23 -120 -26 -75 -7 -230 3 -251 15 -17 11 -48
163 -57 277 -8 105 6 237 40 373 12 51 20 93 17 95 -3 1 -97 1 -207 -2 l-202
-4 -10 -57 c-36 -192 -45 -399 -23 -531 11 -63 10 -66 -14 -85 -24 -20 -25
-26 -24 -120 0 -55 4 -127 8 -160 5 -33 7 -61 6 -63 -1 -2 -38 -11 -81 -22
-44 -10 -124 -33 -178 -50 -54 -17 -101 -29 -104 -25 -3 3 14 25 38 48 l45 42
-50 3 c-30 2 -88 -7 -142 -21 l-93 -24 0 38 0 39 -89 0 -89 0 -7 78 c-7 81
-37 348 -80 717 -14 121 -28 264 -32 318 l-6 97 27 0 c24 0 27 3 24 28 -2 21
-9 28 -30 30 -22 3 -28 9 -28 27 0 21 4 23 33 19 17 -3 526 -83 1131 -178 891
-140 1101 -176 1111 -189 17 -24 71 -230 91 -352 21 -122 24 -413 5 -534 -7
-45 -11 -85 -9 -87 3 -3 1258 2104 1266 2127 2 5 -587 9 -1360 8 l-1363 0 114
-30 c193 -50 373 -129 536 -236 100 -66 222 -163 274 -216 l33 -35 -53 -7
c-83 -9 -1769 -165 -1790 -165 -24 0 -26 41 -3 75 15 23 14 24 -38 64 -111 83
-159 82 -280 -6 -46 -33 -47 -36 -33 -56 8 -12 15 -34 15 -50 0 -27 -1 -28
-47 -22 -27 3 -140 14 -252 25 -111 10 -205 21 -207 23 -8 8 154 174 235 241
209 174 446 296 714 366 l112 29 -1347 1 c-742 0 -1348 -3 -1348 -7z m2288
-740 l3 -83 -46 0 -45 0 0 86 0 85 43 -3 42 -3 3 -82z m112 2 l0 -85 -45 0
-45 0 0 78 c0 43 3 82 7 85 3 4 24 7 45 7 l38 0 0 -85z m1079 -1130 c-9 -77
-20 -165 -24 -196 l-6 -57 -41 -6 c-23 -4 -45 -3 -50 2 -5 5 -12 76 -15 158
l-5 149 38 25 c39 26 118 69 120 67 0 -1 -7 -65 -17 -142z m173 59 c57 -41
130 -88 163 -104 124 -59 303 -89 528 -90 64 0 117 -3 117 -7 0 -5 -11 -43
-23 -87 l-22 -78 -129 -54 c-132 -56 -169 -61 -196 -29 -14 17 -3 39 39 79 77
73 7 73 -224 0 -164 -51 -344 -104 -357 -104 -17 0 -7 24 27 61 19 22 35 47
35 57 0 24 -40 42 -91 42 l-40 0 7 53 c3 28 14 113 25 187 10 74 19 138 19
143 0 17 25 3 122 -69z m621 -73 c23 -15 71 -43 107 -62 82 -41 75 -43 -145
-36 -137 4 -188 10 -265 30 -95 25 -197 64 -188 72 2 2 46 0 98 -6 105 -11
223 -4 279 16 53 20 68 18 114 -14z"/>
<path d="M9930 6861 c0 -5 -3 -17 -7 -27 -6 -16 6 -17 168 -13 113 3 173 0
172 -6 0 -5 -14 -64 -29 -130 -42 -183 -38 -410 12 -586 3 -11 26 -18 82 -25
42 -6 78 -10 79 -9 1 0 -6 29 -17 63 -40 127 -53 229 -47 372 5 128 13 170 63
348 l6 22 -241 0 c-140 0 -241 -4 -241 -9z"/>
<path d="M8390 5268 c-91 -23 -160 -43 -154 -45 6 -2 64 5 129 17 65 11 133
20 151 20 l34 0 -30 -56 c-34 -64 -37 -86 -15 -104 26 -22 106 -4 257 55 130
51 228 78 228 61 0 -3 -12 -24 -26 -46 -29 -44 -29 -74 2 -78 12 -2 82 28 155
66 122 64 240 104 257 88 3 -4 -9 -22 -27 -40 -39 -40 -39 -72 -1 -68 14 1 65
18 113 38 48 19 118 42 155 49 69 15 188 20 216 9 26 -10 18 -44 -19 -90 -19
-23 -35 -45 -35 -48 0 -16 56 0 223 63 187 70 274 97 282 89 3 -3 -8 -22 -25
-43 -66 -83 -20 -125 115 -104 74 12 218 50 211 56 -2 2 -62 -3 -132 -12 -129
-17 -174 -15 -174 8 0 7 18 34 40 61 53 64 50 82 -15 78 -64 -3 -129 -22 -287
-83 -70 -27 -132 -49 -137 -49 -6 0 1 11 14 25 14 13 25 31 25 39 0 44 -128
74 -239 57 -57 -9 -186 -44 -248 -68 -10 -4 -11 2 -7 24 16 78 -77 72 -271
-19 -77 -36 -141 -65 -143 -63 -2 2 7 22 20 44 30 53 17 63 -72 58 -51 -2 -97
-16 -208 -61 -151 -61 -212 -77 -212 -57 0 6 16 43 35 81 19 38 35 74 35 80 0
17 -50 10 -220 -32z"/>
<path d="M10575 4689 c-256 -198 -555 -327 -870 -374 -130 -19 -391 -19 -520
0 -191 29 -392 93 -562 178 -74 38 -245 147 -280 180 -13 11 -25 19 -27 16 -3
-3 1125 -1924 1136 -1934 2 -2 253 418 558 933 635 1069 613 1032 608 1032 -2
0 -21 -14 -43 -31z"/>
</g>
</svg>
